<?xml version="1.0" encoding="UTF-8" standalone="no"?>
<!-- Created by diasvg.py -->
<svg width="33.058cm" height="13.667cm" viewBox="10.770 7.948 43.828 21.615"
 xmlns="http://www.w3.org/2000/svg"
 xmlns:xlink="http://www.w3.org/1999/xlink">
<ellipse cx="12.042" cy="9.578" rx="1.128" ry="1.077" fill="#FF0000" stroke="none"  /><ellipse cx="12.042" cy="9.578" rx="1.128" ry="1.077" fill="none" stroke="#000000"  stroke-width="0.100" /><text x="11.770" y="9.905"  fill="#000000" text-anchor="start" font-size="1.15" font-family="sans" font-style="normal" font-weight="400">
0</text>
<ellipse cx="22.023" cy="9.499" rx="1.181" ry="1.192" fill="#FF0000" stroke="none"  /><ellipse cx="22.023" cy="9.499" rx="1.181" ry="1.192" fill="none" stroke="#000000"  stroke-width="0.100" /><text x="22.023" y="9.780"  fill="#000000" text-anchor="middle" font-size="1.15" font-family="sans" font-style="normal" font-weight="400">
1</text>
<ellipse cx="32.016" cy="9.470" rx="1.226" ry="1.170" fill="#FF0000" stroke="none"  /><ellipse cx="32.016" cy="9.470" rx="1.226" ry="1.170" fill="none" stroke="#000000"  stroke-width="0.100" /><text x="32.016" y="9.751"  fill="#000000" text-anchor="middle" font-size="1.15" font-family="sans" font-style="normal" font-weight="400">
2</text>
<ellipse cx="42.236" cy="9.515" rx="1.226" ry="1.170" fill="#FF0000" stroke="none"  /><ellipse cx="42.236" cy="9.515" rx="1.226" ry="1.170" fill="none" stroke="#000000"  stroke-width="0.100" /><text x="42.236" y="9.796"  fill="#000000" text-anchor="middle" font-size="1.15" font-family="sans" font-style="normal" font-weight="400">
3</text>
<ellipse cx="12.056" cy="20.210" rx="1.226" ry="1.170" fill="#FF0000" stroke="none"  /><ellipse cx="12.056" cy="20.210" rx="1.226" ry="1.170" fill="none" stroke="#000000"  stroke-width="0.100" /><text x="12.056" y="20.491"  fill="#000000" text-anchor="middle" font-size="1.15" font-family="sans" font-style="normal" font-weight="400">
4</text>
<ellipse cx="22.026" cy="20.255" rx="1.226" ry="1.170" fill="#FF0000" stroke="none"  /><ellipse cx="22.026" cy="20.255" rx="1.226" ry="1.170" fill="none" stroke="#000000"  stroke-width="0.100" /><text x="22.026" y="20.536"  fill="#000000" text-anchor="middle" font-size="1.15" font-family="sans" font-style="normal" font-weight="400">
5</text>
<ellipse cx="32.046" cy="20.250" rx="1.226" ry="1.170" fill="#FF0000" stroke="none"  /><ellipse cx="32.046" cy="20.250" rx="1.226" ry="1.170" fill="none" stroke="#000000"  stroke-width="0.100" /><text x="32.046" y="20.531"  fill="#000000" text-anchor="middle" font-size="1.15" font-family="sans" font-style="normal" font-weight="400">
6</text>
<ellipse cx="42.216" cy="20.195" rx="1.226" ry="1.170" fill="#FF0000" stroke="none"  /><ellipse cx="42.216" cy="20.195" rx="1.226" ry="1.170" fill="none" stroke="#000000"  stroke-width="0.100" /><text x="42.216" y="20.476"  fill="#000000" text-anchor="middle" font-size="1.15" font-family="sans" font-style="normal" font-weight="400">
7</text>
<line x1="13.332" y1="20.216" x2="20.750" y2="20.249" stroke="#000000" stroke-width="0.100" />
<line x1="13.220" y1="9.569" x2="20.792" y2="9.509" stroke="#000000" stroke-width="0.100" />
<line x1="33.292" y1="9.476" x2="40.960" y2="9.509" stroke="#000000" stroke-width="0.100" />
<line x1="33.320" y1="20.243" x2="40.942" y2="20.202" stroke="#000000" stroke-width="0.100" />
<line x1="12.056" y1="19.040" x2="12.043" y2="10.696" stroke="#000000" stroke-width="0.100" />
<line x1="22.026" y1="19.035" x2="22.024" y2="10.741" stroke="#000000" stroke-width="0.100" />
<line x1="32.043" y1="19.030" x2="32.020" y2="10.690" stroke="#000000" stroke-width="0.100" />
<line x1="42.218" y1="18.980" x2="42.234" y2="10.730" stroke="#000000" stroke-width="0.100" />
<line x1="12.904" y1="19.298" x2="21.181" y2="10.405" stroke="#000000" stroke-width="0.100" />
<line x1="32.903" y1="19.347" x2="41.379" y2="10.418" stroke="#000000" stroke-width="0.100" />
<text x="16.490" y="8.908"  fill="#000000" text-anchor="start" font-size="1.29" font-family="sans" font-style="normal" font-weight="400">
2</text>
<text x="43.170" y="14.505"  fill="#000000" text-anchor="start" font-size="1.29" font-family="sans" font-style="normal" font-weight="400">
2</text>
<text x="36.020" y="14.455"  fill="#000000" text-anchor="start" font-size="1.29" font-family="sans" font-style="normal" font-weight="400">
2</text>
<text x="30.770" y="14.405"  fill="#000000" text-anchor="start" font-size="1.29" font-family="sans" font-style="normal" font-weight="400">
2</text>
<text x="22.670" y="14.505"  fill="#000000" text-anchor="start" font-size="1.29" font-family="sans" font-style="normal" font-weight="400">
2</text>
<text x="16.170" y="14.355"  fill="#000000" text-anchor="start" font-size="1.29" font-family="sans" font-style="normal" font-weight="400">
2</text>
<text x="10.770" y="14.355"  fill="#000000" text-anchor="start" font-size="1.29" font-family="sans" font-style="normal" font-weight="400">
3</text>
<text x="16.050" y="21.370"  fill="#000000" text-anchor="start" font-size="1.29" font-family="sans" font-style="normal" font-weight="400">
3</text>
<text x="36.890" y="21.360"  fill="#000000" text-anchor="start" font-size="1.29" font-family="sans" font-style="normal" font-weight="400">
3</text>
<text x="36.780" y="9.050"  fill="#000000" text-anchor="start" font-size="1.29" font-family="sans" font-style="normal" font-weight="400">
4</text>
</svg>